<svg version="1.2" xmlns="http://www.w3.org/2000/svg" viewBox="0 0 278 150" width="278" height="150"><style>.a{fill:#75574a}</style><path fill-rule="evenodd" class="a" d="m173.2 37.5l-5.8-5.6q1.1-1.2 1.5-1.6 1.7-1.8 3.2-0.4 0.5 0.5 0.6 1.1 0 0.7-0.3 1.3 0.7-0.5 1.4-0.5 0.7 0 1.3 0.5 0.8 0.8 0.7 1.8-0.1 1-1.1 1.9-0.9 0.9-1.5 1.5zm-3.9-6.8q-0.4 0.4-1 1.1l2.2 2.2 1.1-1.2q0.5-0.5 0.6-1.2 0.1-0.7-0.5-1.2-1.1-1.1-2.4 0.3zm2.7 2.6l-1.1 1.1 2.3 2.2q0.9-0.8 1.1-1 0.8-0.8 0.9-1.5 0-0.7-0.6-1.3-0.5-0.5-1.2-0.4-0.7 0.1-1.4 0.9z"/><path class="a" d="m178.7 32.3l-0.5 0.4-5.1-6.4 0.5-0.4zm-1.8-9l0.6-0.5-0.6 5.4 5.8 0.9-0.6 0.5-5.8-0.9z"/><path class="a" d="m184.2 18.6l0.5-0.3 0.9 6.9q0.1 1-0.1 1.6-0.1 0.6-0.6 0.9-0.5 0.3-0.9 0.2l-0.1-0.5q0.4 0 0.7-0.2 0.5-0.3 0.4-1.5v-0.3l-6.4-3.4 0.6-0.4 5.7 3.1z"/><path class="a" d="m194.4 21.5l0.4 0.3q-0.2 0.6-0.8 1.1-0.5 0.5-1.2 0.8-1.6 0.7-3.1 0.1-1.5-0.6-2.3-2.3-0.7-1.6-0.2-3.2 0.5-1.5 2.2-2.2 1.4-0.7 2.5-0.3v0.5q-1.1-0.2-2.3 0.3-1.3 0.6-1.8 1.9-0.4 1.3 0.2 2.7 0.7 1.5 2 2 1.2 0.5 2.6-0.1 1.2-0.5 1.8-1.6z"/><path class="a" d="m202.6 20.4l-0.6 0.2-1-3.8-4.9 1.4 1 3.7-0.6 0.2-2.2-7.9 0.6-0.1 1 3.5 4.9-1.3-1-3.6 0.6-0.2z"/><path fill-rule="evenodd" class="a" d="m203.6 16q-0.2-1.7 0.8-3.1 1-1.3 2.7-1.5 1.7-0.2 3 0.8 1.4 1 1.6 2.8 0.2 1.8-0.8 3.1-1 1.3-2.7 1.6-1.8 0.2-3.1-0.8-1.3-1-1.5-2.9zm0.7 0q0.1 1.5 1.2 2.4 1.2 0.8 2.6 0.7 1.5-0.2 2.3-1.4 0.8-1.1 0.6-2.6-0.2-1.5-1.3-2.4-1.1-0.9-2.5-0.7-1.5 0.2-2.3 1.3-0.8 1.1-0.6 2.7z"/><path class="a" d="m222.4 19.8l-0.6-0.1 1.4-8.1 0.6 0.2zm5.6-7.3l0.8 0.1-4.5 3.1 3.2 5-0.8-0.2-3.1-4.9z"/><path fill-rule="evenodd" class="a" d="m230.3 18.1l-0.9 3.2-0.6-0.2 2.4-7.8q0.4 0.1 0.9 0.3 0.5 0.1 1 0.3 0.8 0.2 1.3 0.6 0.5 0.4 0.7 0.8 0.1 0.4 0.2 0.9 0 0.4-0.2 0.9-0.3 1-1.2 1.5-0.9 0.4-2.3 0-0.8-0.2-1.3-0.5zm2.7-3.6q-0.4-0.1-1.4-0.4l-1.1 3.5q0.8 0.3 1.3 0.4 1 0.3 1.7 0 0.7-0.3 1-1.1 0.2-0.9-0.1-1.5-0.4-0.6-1.4-0.9z"/><path fill-rule="evenodd" class="a" d="m233.9 22.7l-0.6-0.3 6.6-6 0.5 0.2-0.1 9-0.6-0.3v-3l-3.6-1.6zm5.8-1.1l0.1-4.3-3.2 2.9z"/><path class="a" d="m246.7 28l-0.1 0.6q-0.5 0.1-1.3-0.1-0.7-0.1-1.3-0.5-1.5-1-1.9-2.5-0.4-1.6 0.6-3.2 1-1.5 2.5-2 1.6-0.4 3.1 0.5 1.3 0.9 1.7 2l-0.5 0.2q-0.4-0.9-1.5-1.6-1.3-0.8-2.6-0.4-1.3 0.3-2.1 1.7-0.8 1.3-0.5 2.6 0.3 1.4 1.6 2.2 1.1 0.7 2.3 0.5z"/><path class="a" d="m256.5 28.5l-8.8 1.9-0.4-0.4 5.3-6.2 0.4 0.4-4.5 5.4 8.7-1.9 0.5 0.4-5.3 6.2-0.5-0.4z"/><path fill-rule="evenodd" class="a" d="m254 36l6.1-5.4q1.1 1.2 1.5 1.6 1.7 1.9 0.2 3.2-0.6 0.5-1.2 0.5-0.7 0-1.3-0.4 0.5 0.8 0.4 1.5 0 0.7-0.6 1.2-0.9 0.8-1.8 0.6-1-0.2-1.9-1.2-0.8-0.9-1.4-1.6zm4.4-0.9l-1.1-1.2-2.4 2.2q0.8 0.9 1 1.1 0.7 0.8 1.4 1 0.7 0.1 1.4-0.5 0.5-0.5 0.5-1.2-0.1-0.7-0.8-1.4zm2.7-2.6q-0.3-0.3-1-1l-2.3 2 1 1.2q0.6 0.6 1.2 0.7 0.7 0.1 1.2-0.4 1.2-1-0.1-2.5z"/><path fill-rule="evenodd" class="a" d="m261.6 38.4q1.5-1 3.1-0.7 1.6 0.3 2.6 1.8 1 1.5 0.6 3.1-0.3 1.6-1.8 2.6-1.5 1-3.2 0.7-1.6-0.3-2.6-1.8-0.9-1.5-0.6-3.1 0.3-1.6 1.9-2.6zm0.3 0.6q-1.2 0.8-1.6 2.2-0.3 1.4 0.5 2.6 0.9 1.2 2.2 1.4 1.4 0.3 2.7-0.6 1.3-0.8 1.6-2.2 0.3-1.4-0.5-2.6-0.8-1.2-2.2-1.4-1.4-0.3-2.7 0.6z"/><path class="a" d="m268.2 62.2l-0.1-0.6 3.7-1-1.4-4.9-3.7 1-0.2-0.6 7.8-2.2 0.2 0.6-3.6 1 1.4 4.9 3.6-1 0.2 0.6z"/><path fill-rule="evenodd" class="a" d="m268.6 64.1l-0.1-0.7 8.6 2.5 0.1 0.5-7.7 4.6-0.1-0.7 2.6-1.5-0.5-3.9zm4 4.3l3.7-2.1-4.2-1.2z"/><path class="a" d="m277 73.2v-3h0.6l0.1 6.6-0.6 0.1-0.1-3.1-7.5 0.1v-0.6z"/><path class="a" d="m276.9 84.4l-0.1 0.6-5.9-3.5q-0.9-0.5-1.3-1-0.4-0.5-0.3-1.1 0-0.5 0.3-0.8l0.5 0.2q-0.2 0.3-0.2 0.7-0.1 0.6 0.8 1.2l0.4 0.2 6.5-3v0.7l-5.9 2.7z"/><path fill-rule="evenodd" class="a" d="m271.5 86.7l-3.2-0.7 0.1-0.7 7.9 2q-0.1 0.4-0.2 0.9-0.1 0.5-0.2 1-0.2 0.8-0.5 1.3-0.4 0.5-0.8 0.8-0.4 0.2-0.9 0.2-0.4 0.1-0.9-0.1-1-0.2-1.5-1.1-0.5-0.9-0.2-2.3 0.2-0.7 0.4-1.3zm3.8 2.4q0.1-0.4 0.3-1.4l-3.5-0.8q-0.3 0.8-0.4 1.3-0.3 1 0.1 1.7 0.4 0.7 1.2 0.9 0.8 0.2 1.4-0.2 0.6-0.4 0.9-1.5z"/><path fill-rule="evenodd" class="a" d="m267.1 90.6l0.3-0.6 6.4 6.2-0.2 0.5-8.9 0.4 0.2-0.6 3.1-0.1 1.3-3.7zm1.5 5.7l4.3-0.2-3.1-3z"/><path class="a" d="m261.4 103.2l0.4-0.6 6.6 3.6 1.6-3-1.3-0.9q-2.6-1.7-3.6-2.9-0.4-0.4-0.6-0.9-0.1-0.4-0.1-0.7 0.1-0.3 0.3-0.6l0.6 0.3q-0.2 0.2-0.2 0.4 0 0.2 0.1 0.5 0.2 0.4 0.6 0.9 1 1.1 3.7 2.8l1.3 0.8-2.2 4.1z"/><path fill-rule="evenodd" class="a" d="m266.8 109.9l-0.4 0.5-2.6-1.9q-0.5 0.8-0.7 1.1-0.9 1.2-1.9 1.5-1 0.2-1.9-0.5-1-0.7-1-1.8-0.1-1.1 0.8-2.3 0.3-0.4 0.6-0.8 0.2-0.3 0.5-0.6zm-4.2-0.7q0.4-0.6 0.7-1.1l-3-2.1q-0.6 0.8-0.7 0.9-0.7 1-0.7 1.8 0 0.8 0.8 1.4 0.7 0.5 1.5 0.3 0.7-0.2 1.4-1.2z"/><path class="a" d="m251.7 115l0.5-0.5 2.8 2.7 3.5-3.6-2.8-2.7 0.5-0.5 5.8 5.7-0.4 0.4-2.7-2.5-3.5 3.6 2.6 2.6-0.4 0.5z"/><path fill-rule="evenodd" class="a" d="m253 119.4q1.1 1.4 0.9 3.1-0.2 1.6-1.7 2.7-1.4 1-3 0.8-1.6-0.3-2.7-1.7-1.1-1.5-0.9-3.1 0.2-1.7 1.6-2.7 1.4-1.1 3.1-0.8 1.6 0.2 2.7 1.7zm-0.5 0.4q-0.9-1.2-2.3-1.5-1.4-0.2-2.6 0.7-1.2 0.9-1.3 2.3-0.2 1.4 0.7 2.6 0.9 1.2 2.3 1.4 1.4 0.3 2.6-0.6 1.1-0.9 1.3-2.3 0.2-1.4-0.7-2.6z"/><path class="a" d="m218.1 14.9c0 0.5-0.4 0.9-0.9 0.9-0.6 0-1-0.4-1-0.9 0-0.5 0.4-1 1-1 0.5 0 0.9 0.5 0.9 1z"/><path class="a" d="m269.5 49.8c0 0.5-0.4 0.9-1 0.9-0.5 0-0.9-0.4-0.9-0.9 0-0.6 0.4-1 0.9-1 0.6 0 1 0.4 1 1z"/><path class="a" d="m142.6 103q-0.1-0.6-0.1-0.7c-0.3-1.3-0.3-1.3-0.5-1.3h-19.8c-1 0-1 0-1 0.1-0.3 1.1-0.5 2-0.6 2.6l-0.1 0.2 0.2-0.1q2.4-1.4 3.8-2.1c0 0 0.1 0 0.5 0h5.7q0 1.2 0 3.5 0 2.5 0 3.7v15.7q0 0.2 0 0.2l-1.5 1.4h5l-0.3-0.2q-0.4-0.3-1.1-1-0.2-0.2-0.2-0.4v-22.9h6c0.2 0 0.3 0 0.3 0l1.3 0.7q1.6 0.9 2.4 1.4l0.3 0.1-0.1-0.3q-0.1-0.2-0.2-0.6z"/><path fill-rule="evenodd" class="a" d="m170.6 111.8q0.4 3.1-0.7 6.3c-0.8 2.4-2.2 4.3-4.2 5.7-2 1.5-4.5 2.3-7.2 2.4q-0.1 0-0.3 0c-2.6 0-5-0.7-7.1-2.1-2.1-1.5-3.6-3.4-4.5-5.9-0.8-2.2-1-4.5-0.6-7 0.5-2.4 1.5-4.5 3-6.2 1.8-2 4.1-3.2 6.8-3.7 2.7-0.4 5.2-0.2 7.4 0.7q3.4 1.5 5.3 4.2 1.6 2.5 2.1 5.6zm-3.7-5.5c-1.3-1.9-3-3.3-5.2-4q-1.7-0.5-3.4-0.5-2 0-4 0.7-1.8 0.7-3.2 2.1-1.4 1.3-2.2 3.1-1.2 2.6-1.2 5.6-0.1 3 1 5.6 0.7 1.8 1.9 3.3 1.3 1.4 3 2.3c2.4 1.1 5 1.3 7.5 0.6 2.4-0.6 4.3-1.9 5.7-3.9 1.3-2.1 2.1-4.6 2.1-7.4 0-2.9-0.6-5.4-2-7.5z"/><path fill-rule="evenodd" class="a" d="m192.3 104.8q1.4 2.5 0.8 5.6-0.4 1.9-1.6 3.3-1.2 1.3-2.9 2-0.5 0.2-0.9 0.4-0.5 0.1-1.1 0.2-0.5 0.1-0.9 0.1-0.4 0-1.1 0-0.7 0.1-1 0.1-0.4 0-1.2 0-0.9 0-1.2 0h-1.2q0 0 0 0v7.8c0 0.3 0 0.4 0 0.5q0 0 0.1 0.1h0.1q0.1 0.2 0.2 0.3 0.2 0.1 0.3 0.3 0.1 0.1 0.3 0.2 0.2 0.2 0.3 0.3l0.1 0.2h-4.9l0.2-0.2q0.1 0 0.6-0.5 0.5-0.5 0.8-0.8 0 0 0-0.2v-21.2c0-0.4 0-0.5 0-0.6-0.4-0.3-1-0.8-1.6-1.5l-0.2-0.2h0.2q1 0 3 0 2 0.1 3 0.1c0.2 0 0.7 0 1.2-0.1q0.9 0 1.5 0 0.6 0 1.2 0.1 1.8 0.3 3.4 1.2 1.6 1 2.5 2.5zm-1.6 0.7q-0.7-1.7-2.3-2.6-1.6-1-3.5-1.1-0.8 0-3.8 0h-1.1v0.8c0 3 0 7.4 0 13.2h3.3q1.9 0.1 3.1-0.2 1.1-0.2 2.2-0.9 2.6-1.9 2.6-6.1 0.1-1.6-0.5-3.1z"/><path class="a" d="m219.9 103.6q-0.1-0.2-0.2-0.6-0.1-0.5-0.1-0.7c-0.3-1.3-0.3-1.3-0.5-1.3h-19.8c-1 0-1 0-1 0.1-0.3 1.1-0.5 2-0.7 2.6v0.2l0.2-0.1q2.4-1.4 3.8-2.1c0 0 0.1 0 0.5 0h5.7q0 1.2 0 3.5 0 2.5 0 3.7v15.7q0 0.2 0 0.2-0.1 0.1-0.2 0.2l-1.3 1.2h5l-0.3-0.2q-0.4-0.3-1.1-1-0.2-0.2-0.2-0.4v-22.9h6c0.2 0 0.3 0 0.3 0l1.3 0.7q1.6 0.9 2.4 1.4l0.3 0.1z"/><path fill-rule="evenodd" class="a" d="m223.9 83c0 0-1.4-0.2-1.4-0.2 0.8-12.8-22.5-9.8-30.4-7.7q-4.4 1.1-8.7 2.4c-5.1 1.6-10.1 3.2-15.1 4.7-2.3 0.7-4.6 1.3-6.9 2-2.1 0.7-5.3 1.3-6.6 1-0.7-0.2-1.6-0.6-2-1.2-2.5-3.2-0.5-10.6 5.1-18.7 0.5-0.8 0.9-1.5 0.9-1.6 0-0.1-1.6 1.3-6.8 5.9-4.8 4.6-6.1 5.7-7.3 6.3-1.4 0.8-2.5 0-2.2-1.6 0.4-2.3 2.5-5.5 5.9-9q-0.7 0.3-1.4 0.6c-3.5 1.5-8.1 2.3-14.2 2.7l-1.9 0.1-0.2 0.3c-2.4 3.2-5.5 6.6-7.8 8.3-1 0.8-2.9 1.9-3.8 2.1-0.3 0-0.9 0.1-1.3 0-0.9 0-1.3-0.2-1.8-0.9-0.4-0.7-0.2-2.2 0.7-3.8 1.5-2.8 3.8-4.7 6.8-5.6 1-0.3 3.2-0.8 4.6-0.9l0.9-0.1 0.5-0.6c2.5-3.3 4.7-7.5 4.7-9 0-0.5-0.2-0.6-0.9-0.6-1.8 0-6.3 2.7-11.7 7.2-4.3 3.5-9.6 8.8-12.1 11.7-6.3 7.8-8.7 11-21.9 28.8-5.7 7.8-13.3 17.5-17.6 22.7-3.9 4.7-6.1 7.1-9.5 10.5-3.6 3.6-6.2 5.7-9.1 7.7-3.9 2.6-7 3.7-9.5 3.2-1.4-0.2-2.7-0.8-3-1.5-0.4-0.7-0.4-1.6 0.2-2.2 0.3-0.4 0.7-0.4 0.6 0.1-0.2 0.8-0.2 1 0.1 1.5 0.9 0.9 3.1 1.3 4.9 0.7 4-0.9 8.2-3.9 14.3-9.9 5.3-5.3 9.7-10.6 18.1-21.5 4.1-5.4 7.7-10.3 13.2-18.1 6.5-9.2 8.2-11.5 11.7-16.1 3.8-4.8 9.7-12.2 13.9-17.2-3.9 2.3-9.5 5.2-12.5 6.4-5.6 2.3-12.6 4.3-17.5 5.3-5.1 1-9.7 1.6-16.8 2.4-0.5 0.1-1.1 0.2-1.1 0.2 0 0-0.7 1.1-1.8 2.4-9.2 12.3-16.7 20.4-24.3 26.8-9.9 8.2-18 11.8-27.2 12.1-0.9 0-2.2 0-2.8-0.1-4.2-0.4-7.1-2.1-9.2-5.1-0.6-1.1-1-1.7-1.5-3-0.9-2.8-0.8-6.7 0.2-10.5 1.9-6.5 7-12 14.3-15.7 4.3-2.1 9.2-3.7 14.7-4.6 6.3-1 15.9-2 25.6-2.5 5.9-0.3 10.1-0.7 10.2-0.8 0.2 0 1.2-1.4 4-5.3 0.6-0.8 1.6-2.1 2-2.8 1.2-1.6 6.6-9.1 9.1-12.5 9.5-13.3 14.6-20.1 20.7-27.5 2.1-2.6 5-6 7.1-8.3 0.6-0.6 1-1.1 0.8-1-0.4 0.4-3.7 3.5-5.3 5-0.7 0.6-2.3 2.1-3.6 3.4-1.4 1.3-3.9 3.6-5.5 5.3-7.8 7.4-15.6 14.8-20.3 19-0.9 0.6-2 1.7-2.6 2.3-1.5 1.4-5.2 4.4-7.1 6-8.7 7.1-15.4 11.2-20.8 12.6-2 0.5-4.1 0.6-5.5 0.4-5.6-1.2-8-8.1-5.6-16.9 2.4-9.3 10-21.4 20.6-32.8 0.6-0.6 2.4-2.5 4.1-4.2l2.9-3-1.1 0.6c-3.7 1.7-11.2 5.4-14.7 7.1-8 4.2-16 9.4-21.6 14.2-5.1 4.2-9.5 9-10.8 12-0.3 0.6-0.5 0.8-1 0.8-0.6 0-0.7-0.8-0.1-2 1-1.9 2.5-3.6 5.7-6.7 6.2-6.2 14.9-12.3 24.9-17.8 2.9-1.5 8.1-4.1 12.5-6.1 1.2-0.7 3.3-1.6 4.4-2.2 1.1-0.5 2.5-1.2 3-1.4 0.9-0.4 1.4-0.7 2.9-2.2 4.5-3.8 8.7-7.1 12.8-9.8 6-4 9-5.1 10.7-3.8 0.4 0.4 0.5 0.9 0.3 1.4-0.2 0.4-0.9 1.1-1.6 1.7-0.8 0.5-3.6 2.3-4.7 3-0.6 0.3-1.5 0.8-1.9 1.2-1.3 0.7-4.7 2.6-6.6 3.5-1.4 0.8-1.9 1.1-2.9 1.9-9 7.6-17.4 16.3-22.9 23.3-5.7 7.3-9.9 14.5-12.1 20.7-2.5 7-2 12.9 1.5 15.2 1.4 1 3.4 1.2 5.6 0.8 3.3-0.7 7.7-2.7 12.3-5.8 7.4-4.8 18.9-14.6 31.1-26.3 7.1-6.7 17-16.3 20.1-19.1 0.4-0.3 1-0.9 1.5-1.4 0.5-0.3 1.6-1.4 2.5-2.2 1-0.9 2.3-2.1 3-2.6 0.5-0.6 1.5-1.4 2-1.9 2.8-2.3 4.2-3.6 5.7-5 3.7-3.4 6.2-5.3 7.7-6.1 0.3-0.2 0.8-0.2 1.2-0.2 0.5 0 0.7 0 1 0.3 0.5 0.5 0.5 1 0.1 1.6-0.2 0.4-1.3 1.4-2.5 2.5-8.9 8-20.5 20.1-28.7 29.8-7.2 8.5-11.7 14.3-22.5 29-2.9 3.9-6.2 8.2-7.2 9.5-0.9 1.4-1.8 2.5-1.7 2.5 0 0.1 3.9-0.4 7.5-0.9 11.6-1.6 17.2-3 27.3-7.1 3.6-1.3 7.9-3.6 12.4-6.4 0.7-0.3 1.1-0.6 1.4-0.8 2.6-2.9 4.7-5.2 6.4-6.7 3.3-3.2 5-4.4 6-4.4 0.4 0 0.9 0.3 1.1 0.7 0.1 0.4-0.3 1.1-0.8 1.3-1 0.5-6.9 6.5-10.3 10.3-2.7 2.9-2.7 3-1.2 1.7 3.8-3.4 7.1-5.7 9.6-7.3 4-2.3 6.1-2.8 6.9-1.1 0.2 0.4 0.2 0.6 0.2 1.4-0.2 1.8-1.5 4.8-3.5 7.9-0.3 0.4-0.5 0.8-0.5 0.8 0.1 0.1 4.4-0.2 5.8-0.3 4.2-0.4 7.8-1.4 10.8-2.9q0.8-0.4 1.3-0.7c3.2-3 5.9-5.2 8.2-6.4 1.4-0.7 2.2-0.9 3.2-0.9 1.2 0 1.9 0.5 2.1 1.5 0.1 0.2 0.1 0.2 1.4-1.1 0.9-0.9 1.6-1.4 1.7-1.4 0.6-0.2 1.3 0.2 1.5 0.9 0.1 0.5-0.3 1.2-2 2.8-6.8 7.5-10.6 13.5-12 18.9-0.2 1.2-0.3 2.9-0.2 3.8 0.2 0.7 0.7 1.5 1.2 1.7 0.8 0.4 1.6 0.3 2.4 0.2 1.3-0.2 2.5-0.5 3.7-0.8 6.8-1.7 13.5-4 20.3-5.9 9.6-2.8 19.4-5.2 29.4-5 5.9 0.3 14.7 3.2 13.5 10.7zm-147-73.2c2.7-1.4 6-3.4 8.2-4.8 1.3-0.9 2.9-2.3 2.9-2.5 0-0.3-1.5 0.2-2.8 1q-2.6 1.5-7.4 5.2c-2.2 1.7-2.3 1.8-0.9 1.1zm-11.6 70.2c0 0-0.9 0-2.2 0.1-1.2 0.1-4 0.4-6.4 0.5-5.5 0.3-8.2 0.5-12.3 0.9-1.9 0.1-4 0.4-4.7 0.5-5.7 0.5-12.4 1.7-16.3 2.9-1.7 0.5-4.7 1.7-6.2 2.5-5.2 2.3-9.3 5.6-12 9.6-1.4 2.2-2.7 5.3-3.1 7.7-0.1 0.6-0.2 1.2-0.2 1.2 0 0-0.1 0.8-0.1 1.7 0 2.9 0.6 5.1 2 7.2 2.6 4 6.5 5.3 13.5 4.7h0.1c1.6-0.1 3.6-0.6 5.5-1.1 4.6-1.3 10.3-4.6 16.3-9.3 6.5-5 11.8-10.5 18-18.4 2.9-3.5 8.2-10.6 8.1-10.7zm63.2-11.1c-0.2 0-0.7 0.1-1.3 0.1-3.7 0.5-5.8 1.4-7.7 3.2-1.6 1.6-2.8 3.6-2.8 4.9 0 0.7 0.2 1 0.5 1.2 0.4 0.2 1.3 0 2.1-0.3 1.6-0.8 3.5-2.5 5.9-5.1 1.2-1.4 3.3-3.9 3.3-4zm30.3-6.7c1.2-1 1.5-1.5 2-2.8l0.1-0.6h-0.5c-2.2 0.5-6.3 3.5-10.7 7.7-3.3 3.4-5.6 6.4-5.9 8 0 0.3 0 0.4 0.2 0.3 0.1 0 0.6-0.3 1-0.5 0.9-0.7 2.3-1.7 4.7-4 6.5-5.7 8.2-7.2 9.1-8.1z"/></svg>