<svg version="1.2" xmlns="http://www.w3.org/2000/svg" width="278" height="150"><style>.a{fill:#75574a}</style><path fill-rule="evenodd" class="a" d="m173.2 37.5-5.8-5.6q1.1-1.2 1.5-1.6 1.7-1.8 3.2-.4.5.5.6 1.1 0 .7-.3 1.3.7-.5 1.4-.5t1.3.5q.8.8.7 1.8-.1 1-1.1 1.9l-1.5 1.5zm-3.9-6.8q-.4.4-1 1.1l2.2 2.2 1.1-1.2q.5-.5.6-1.2.1-.7-.5-1.2-1.1-1.1-2.4.3zm2.7 2.6-1.1 1.1 2.3 2.2q.9-.8 1.1-1 .8-.8.9-1.5 0-.7-.6-1.3-.5-.5-1.2-.4-.7.1-1.4.9z"/><path class="a" d="m178.7 32.3-.5.4-5.1-6.4.5-.4zm-1.8-9 .6-.5-.6 5.4 5.8.9-.6.5-5.8-.9zm7.3-4.7.5-.3.9 6.9q.1 1-.1 1.6-.1.6-.6.9-.5.3-.9.2l-.1-.5q.4 0 .7-.2.5-.3.4-1.5v-.3l-6.4-3.4.6-.4 5.7 3.1zm10.2 2.9.4.3q-.2.6-.8 1.1-.5.5-1.2.8-1.6.7-3.1.1t-2.3-2.3q-.7-1.6-.2-3.2.5-1.5 2.2-2.2 1.4-.7 2.5-.3v.5q-1.1-.2-2.3.3-1.3.6-1.8 1.9-.4 1.3.2 2.7.7 1.5 2 2 1.2.5 2.6-.1 1.2-.5 1.8-1.6zm8.2-1.1-.6.2-1-3.8-4.9 1.4 1 3.7-.6.2-2.2-7.9.6-.1 1 3.5 4.9-1.3-1-3.6.6-.2z"/><path fill-rule="evenodd" class="a" d="M203.6 16q-.2-1.7.8-3.1 1-1.3 2.7-1.5 1.7-.2 3 .8 1.4 1 1.6 2.8.2 1.8-.8 3.1t-2.7 1.6q-1.8.2-3.1-.8t-1.5-2.9zm.7 0q.1 1.5 1.2 2.4 1.2.8 2.6.7 1.5-.2 2.3-1.4.8-1.1.6-2.6-.2-1.5-1.3-2.4-1.1-.9-2.5-.7-1.5.2-2.3 1.3-.8 1.1-.6 2.7z"/><path class="a" d="m222.4 19.8-.6-.1 1.4-8.1.6.2zm5.6-7.3.8.1-4.5 3.1 3.2 5-.8-.2-3.1-4.9z"/><path fill-rule="evenodd" class="a" d="m230.3 18.1-.9 3.2-.6-.2 2.4-7.8q.4.1.9.3.5.1 1 .3.8.2 1.3.6.5.4.7.8.1.4.2.9 0 .4-.2.9-.3 1-1.2 1.5-.9.4-2.3 0-.8-.2-1.3-.5zm2.7-3.6q-.4-.1-1.4-.4l-1.1 3.5q.8.3 1.3.4 1 .3 1.7 0t1-1.1q.2-.9-.1-1.5-.4-.6-1.4-.9zm.9 8.2-.6-.3 6.6-6 .5.2-.1 9-.6-.3v-3l-3.6-1.6zm5.8-1.1.1-4.3-3.2 2.9z"/><path class="a" d="m246.7 28-.1.6q-.5.1-1.3-.1-.7-.1-1.3-.5-1.5-1-1.9-2.5-.4-1.6.6-3.2 1-1.5 2.5-2 1.6-.4 3.1.5 1.3.9 1.7 2l-.5.2q-.4-.9-1.5-1.6-1.3-.8-2.6-.4-1.3.3-2.1 1.7-.8 1.3-.5 2.6.3 1.4 1.6 2.2 1.1.7 2.3.5zm9.8.5-8.8 1.9-.4-.4 5.3-6.2.4.4-4.5 5.4 8.7-1.9.5.4-5.3 6.2-.5-.4z"/><path fill-rule="evenodd" class="a" d="m254 36 6.1-5.4q1.1 1.2 1.5 1.6 1.7 1.9.2 3.2-.6.5-1.2.5-.7 0-1.3-.4.5.8.4 1.5 0 .7-.6 1.2-.9.8-1.8.6-1-.2-1.9-1.2-.8-.9-1.4-1.6zm4.4-.9-1.1-1.2-2.4 2.2q.8.9 1 1.1.7.8 1.4 1 .7.1 1.4-.5.5-.5.5-1.2-.1-.7-.8-1.4zm2.7-2.6-1-1-2.3 2 1 1.2q.6.6 1.2.7.7.1 1.2-.4 1.2-1-.1-2.5zm.5 5.9q1.5-1 3.1-.7 1.6.3 2.6 1.8t.6 3.1q-.3 1.6-1.8 2.6t-3.2.7q-1.6-.3-2.6-1.8-.9-1.5-.6-3.1.3-1.6 1.9-2.6zm.3.6q-1.2.8-1.6 2.2-.3 1.4.5 2.6.9 1.2 2.2 1.4 1.4.3 2.7-.6 1.3-.8 1.6-2.2.3-1.4-.5-2.6-.8-1.2-2.2-1.4-1.4-.3-2.7.6z"/><path class="a" d="m268.2 62.2-.1-.6 3.7-1-1.4-4.9-3.7 1-.2-.6 7.8-2.2.2.6-3.6 1 1.4 4.9 3.6-1 .2.6z"/><path fill-rule="evenodd" class="a" d="m268.6 64.1-.1-.7 8.6 2.5.1.5-7.7 4.6-.1-.7 2.6-1.5-.5-3.9zm4 4.3 3.7-2.1-4.2-1.2z"/><path class="a" d="M277 73.2v-3h.6l.1 6.6-.6.1-.1-3.1-7.5.1v-.6zm-.1 11.2-.1.6-5.9-3.5q-.9-.5-1.3-1t-.3-1.1q0-.5.3-.8l.5.2q-.2.3-.2.7-.1.6.8 1.2l.4.2 6.5-3v.7l-5.9 2.7z"/><path fill-rule="evenodd" class="a" d="m271.5 86.7-3.2-.7.1-.7 7.9 2q-.1.4-.2.9l-.2 1q-.2.8-.5 1.3-.4.5-.8.8-.4.2-.9.2-.4.1-.9-.1-1-.2-1.5-1.1-.5-.9-.2-2.3.2-.7.4-1.3zm3.8 2.4q.1-.4.3-1.4l-3.5-.8q-.3.8-.4 1.3-.3 1 .1 1.7t1.2.9q.8.2 1.4-.2.6-.4.9-1.5zm-8.2 1.5.3-.6 6.4 6.2-.2.5-8.9.4.2-.6 3.1-.1 1.3-3.7zm1.5 5.7 4.3-.2-3.1-3z"/><path class="a" d="m261.4 103.2.4-.6 6.6 3.6 1.6-3-1.3-.9q-2.6-1.7-3.6-2.9-.4-.4-.6-.9-.1-.4-.1-.7.1-.3.3-.6l.6.3q-.2.2-.2.4t.1.5q.2.4.6.9 1 1.1 3.7 2.8l1.3.8-2.2 4.1z"/><path fill-rule="evenodd" class="a" d="m266.8 109.9-.4.5-2.6-1.9q-.5.8-.7 1.1-.9 1.2-1.9 1.5-1 .2-1.9-.5-1-.7-1-1.8-.1-1.1.8-2.3l.6-.8q.2-.3.5-.6zm-4.2-.7q.4-.6.7-1.1l-3-2.1q-.6.8-.7.9-.7 1-.7 1.8t.8 1.4q.7.5 1.5.3.7-.2 1.4-1.2z"/><path class="a" d="m251.7 115 .5-.5 2.8 2.7 3.5-3.6-2.8-2.7.5-.5 5.8 5.7-.4.4-2.7-2.5-3.5 3.6 2.6 2.6-.4.5z"/><path fill-rule="evenodd" class="a" d="M253 119.4q1.1 1.4.9 3.1-.2 1.6-1.7 2.7-1.4 1-3 .8-1.6-.3-2.7-1.7-1.1-1.5-.9-3.1.2-1.7 1.6-2.7 1.4-1.1 3.1-.8 1.6.2 2.7 1.7zm-.5.4q-.9-1.2-2.3-1.5-1.4-.2-2.6.7-1.2.9-1.3 2.3-.2 1.4.7 2.6.9 1.2 2.3 1.4 1.4.3 2.6-.6 1.1-.9 1.3-2.3.2-1.4-.7-2.6z"/><path class="a" d="M218.1 14.9c0 .5-.4.9-.9.9-.6 0-1-.4-1-.9s.4-1 1-1c.5 0 .9.5.9 1zm51.4 34.9c0 .5-.4.9-1 .9-.5 0-.9-.4-.9-.9 0-.6.4-1 .9-1 .6 0 1 .4 1 1zM142.6 103q-.1-.6-.1-.7c-.3-1.3-.3-1.3-.5-1.3h-19.8c-1 0-1 0-1 .1-.3 1.1-.5 2-.6 2.6l-.1.2.2-.1q2.4-1.4 3.8-2.1h6.2v23.1l-1.5 1.4h5l-.3-.2q-.4-.3-1.1-1-.2-.2-.2-.4v-22.9h6.3l1.3.7q1.6.9 2.4 1.4l.3.1-.1-.3q-.1-.2-.2-.6z"/><path fill-rule="evenodd" class="a" d="M170.6 111.8q.4 3.1-.7 6.3c-.8 2.4-2.2 4.3-4.2 5.7-2 1.5-4.5 2.3-7.2 2.4h-.3c-2.6 0-5-.7-7.1-2.1-2.1-1.5-3.6-3.4-4.5-5.9-.8-2.2-1-4.5-.6-7 .5-2.4 1.5-4.5 3-6.2 1.8-2 4.1-3.2 6.8-3.7 2.7-.4 5.2-.2 7.4.7q3.4 1.5 5.3 4.2 1.6 2.5 2.1 5.6zm-3.7-5.5c-1.3-1.9-3-3.3-5.2-4q-1.7-.5-3.4-.5-2 0-4 .7-1.8.7-3.2 2.1-1.4 1.3-2.2 3.1-1.2 2.6-1.2 5.6-.1 3 1 5.6.7 1.8 1.9 3.3 1.3 1.4 3 2.3c2.4 1.1 5 1.3 7.5.6 2.4-.6 4.3-1.9 5.7-3.9 1.3-2.1 2.1-4.6 2.1-7.4 0-2.9-.6-5.4-2-7.5zm25.4-1.5q1.4 2.5.8 5.6-.4 1.9-1.6 3.3-1.2 1.3-2.9 2-.5.2-.9.4-.5.1-1.1.2-.5.1-.9.1h-1.1q-.7.1-1 .1H180v8.3l.1.1h.1q.1.2.2.3.2.1.3.3.1.1.3.2l.3.3.1.2h-4.9l.2-.2q.1 0 .6-.5l.8-.8v-22c-.4-.3-1-.8-1.6-1.5l-.2-.2h3.2q2 .1 3 .1c.2 0 .7 0 1.2-.1h1.5q.6 0 1.2.1 1.8.3 3.4 1.2 1.6 1 2.5 2.5zm-1.6.7q-.7-1.7-2.3-2.6-1.6-1-3.5-1.1H180v14h3.3q1.9.1 3.1-.2 1.1-.2 2.2-.9 2.6-1.9 2.6-6.1.1-1.6-.5-3.1z"/><path class="a" d="M219.9 103.6q-.1-.2-.2-.6-.1-.5-.1-.7c-.3-1.3-.3-1.3-.5-1.3h-19.8c-1 0-1 0-1 .1-.3 1.1-.5 2-.7 2.6v.2l.2-.1q2.4-1.4 3.8-2.1h6.2v23.1l-.2.2-1.3 1.2h5l-.3-.2q-.4-.3-1.1-1-.2-.2-.2-.4v-22.9h6.3l1.3.7q1.6.9 2.4 1.4l.3.1z"/><path fill-rule="evenodd" class="a" d="m223.9 83-1.4-.2c.8-12.8-22.5-9.8-30.4-7.7q-4.4 1.1-8.7 2.4c-5.1 1.6-10.1 3.2-15.1 4.7-2.3.7-4.6 1.3-6.9 2-2.1.7-5.3 1.3-6.6 1-.7-.2-1.6-.6-2-1.2-2.5-3.2-.5-10.6 5.1-18.7.5-.8.9-1.5.9-1.6 0-.1-1.6 1.3-6.8 5.9-4.8 4.6-6.1 5.7-7.3 6.3-1.4.8-2.5 0-2.2-1.6.4-2.3 2.5-5.5 5.9-9l-1.4.6c-3.5 1.5-8.1 2.3-14.2 2.7l-1.9.1-.2.3c-2.4 3.2-5.5 6.6-7.8 8.3-1 .8-2.9 1.9-3.8 2.1-.3 0-.9.1-1.3 0-.9 0-1.3-.2-1.8-.9-.4-.7-.2-2.2.7-3.8 1.5-2.8 3.8-4.7 6.8-5.6 1-.3 3.2-.8 4.6-.9l.9-.1.5-.6c2.5-3.3 4.7-7.5 4.7-9 0-.5-.2-.6-.9-.6-1.8 0-6.3 2.7-11.7 7.2-4.3 3.5-9.6 8.8-12.1 11.7-6.3 7.8-8.7 11-21.9 28.8-5.7 7.8-13.3 17.5-17.6 22.7-3.9 4.7-6.1 7.1-9.5 10.5-3.6 3.6-6.2 5.7-9.1 7.7-3.9 2.6-7 3.7-9.5 3.2-1.4-.2-2.7-.8-3-1.5-.4-.7-.4-1.6.2-2.2.3-.4.7-.4.6.1-.2.8-.2 1 .1 1.5.9.9 3.1 1.3 4.9.7 4-.9 8.2-3.9 14.3-9.9 5.3-5.3 9.7-10.6 18.1-21.5 4.1-5.4 7.7-10.3 13.2-18.1 6.5-9.2 8.2-11.5 11.7-16.1 3.8-4.8 9.7-12.2 13.9-17.2-3.9 2.3-9.5 5.2-12.5 6.4-5.6 2.3-12.6 4.3-17.5 5.3-5.1 1-9.7 1.6-16.8 2.4-.5.1-1.1.2-1.1.2s-.7 1.1-1.8 2.4C57 94.5 49.5 102.6 41.9 109c-9.9 8.2-18 11.8-27.2 12.1-.9 0-2.2 0-2.8-.1-4.2-.4-7.1-2.1-9.2-5.1-.6-1.1-1-1.7-1.5-3-.9-2.8-.8-6.7.2-10.5 1.9-6.5 7-12 14.3-15.7 4.3-2.1 9.2-3.7 14.7-4.6 6.3-1 15.9-2 25.6-2.5 5.9-.3 10.1-.7 10.2-.8.2 0 1.2-1.4 4-5.3.6-.8 1.6-2.1 2-2.8 1.2-1.6 6.6-9.1 9.1-12.5 9.5-13.3 14.6-20.1 20.7-27.5 2.1-2.6 5-6 7.1-8.3.6-.6 1-1.1.8-1-.4.4-3.7 3.5-5.3 5-.7.6-2.3 2.1-3.6 3.4-1.4 1.3-3.9 3.6-5.5 5.3-7.8 7.4-15.6 14.8-20.3 19-.9.6-2 1.7-2.6 2.3-1.5 1.4-5.2 4.4-7.1 6-8.7 7.1-15.4 11.2-20.8 12.6-2 .5-4.1.6-5.5.4-5.6-1.2-8-8.1-5.6-16.9 2.4-9.3 10-21.4 20.6-32.8.6-.6 2.4-2.5 4.1-4.2l2.9-3-1.1.6c-3.7 1.7-11.2 5.4-14.7 7.1-8 4.2-16 9.4-21.6 14.2-5.1 4.2-9.5 9-10.8 12-.3.6-.5.8-1 .8-.6 0-.7-.8-.1-2 1-1.9 2.5-3.6 5.7-6.7 6.2-6.2 14.9-12.3 24.9-17.8 2.9-1.5 8.1-4.1 12.5-6.1 1.2-.7 3.3-1.6 4.4-2.2 1.1-.5 2.5-1.2 3-1.4.9-.4 1.4-.7 2.9-2.2C69.8 11 74 7.7 78.1 5c6-4 9-5.1 10.7-3.8.4.4.5.9.3 1.4-.2.4-.9 1.1-1.6 1.7-.8.5-3.6 2.3-4.7 3-.6.3-1.5.8-1.9 1.2-1.3.7-4.7 2.6-6.6 3.5-1.4.8-1.9 1.1-2.9 1.9-9 7.6-17.4 16.3-22.9 23.3-5.7 7.3-9.9 14.5-12.1 20.7-2.5 7-2 12.9 1.5 15.2 1.4 1 3.4 1.2 5.6.8 3.3-.7 7.7-2.7 12.3-5.8 7.4-4.8 18.9-14.6 31.1-26.3 7.1-6.7 17-16.3 20.1-19.1.4-.3 1-.9 1.5-1.4.5-.3 1.6-1.4 2.5-2.2 1-.9 2.3-2.1 3-2.6.5-.6 1.5-1.4 2-1.9 2.8-2.3 4.2-3.6 5.7-5 3.7-3.4 6.2-5.3 7.7-6.1.3-.2.8-.2 1.2-.2.5 0 .7 0 1 .3.5.5.5 1 .1 1.6-.2.4-1.3 1.4-2.5 2.5-8.9 8-20.5 20.1-28.7 29.8-7.2 8.5-11.7 14.3-22.5 29-2.9 3.9-6.2 8.2-7.2 9.5-.9 1.4-1.8 2.5-1.7 2.5 0 .1 3.9-.4 7.5-.9 11.6-1.6 17.2-3 27.3-7.1 3.6-1.3 7.9-3.6 12.4-6.4.7-.3 1.1-.6 1.4-.8 2.6-2.9 4.7-5.2 6.4-6.7 3.3-3.2 5-4.4 6-4.4.4 0 .9.3 1.1.7.1.4-.3 1.1-.8 1.3-1 .5-6.9 6.5-10.3 10.3-2.7 2.9-2.7 3-1.2 1.7 3.8-3.4 7.1-5.7 9.6-7.3 4-2.3 6.1-2.8 6.9-1.1.2.4.2.6.2 1.4-.2 1.8-1.5 4.8-3.5 7.9-.3.4-.5.8-.5.8.1.1 4.4-.2 5.8-.3 4.2-.4 7.8-1.4 10.8-2.9q.8-.4 1.3-.7c3.2-3 5.9-5.2 8.2-6.4 1.4-.7 2.2-.9 3.2-.9 1.2 0 1.9.5 2.1 1.5.1.2.1.2 1.4-1.1.9-.9 1.6-1.4 1.7-1.4.6-.2 1.3.2 1.5.9.1.5-.3 1.2-2 2.8-6.8 7.5-10.6 13.5-12 18.9-.2 1.2-.3 2.9-.2 3.8.2.7.7 1.5 1.2 1.7.8.4 1.6.3 2.4.2 1.3-.2 2.5-.5 3.7-.8 6.8-1.7 13.5-4 20.3-5.9 9.6-2.8 19.4-5.2 29.4-5 5.9.3 14.7 3.2 13.5 10.7zM76.9 9.8c2.7-1.4 6-3.4 8.2-4.8 1.3-.9 2.9-2.3 2.9-2.5 0-.3-1.5.2-2.8 1Q82.6 5 77.8 8.7c-2.2 1.7-2.3 1.8-.9 1.1zM65.3 80s-.9 0-2.2.1c-1.2.1-4 .4-6.4.5-5.5.3-8.2.5-12.3.9-1.9.1-4 .4-4.7.5-5.7.5-12.4 1.7-16.3 2.9-1.7.5-4.7 1.7-6.2 2.5C12 89.7 7.9 93 5.2 97c-1.4 2.2-2.7 5.3-3.1 7.7l-.2 1.2s-.1.8-.1 1.7c0 2.9.6 5.1 2 7.2 2.6 4 6.5 5.3 13.5 4.7h.1c1.6-.1 3.6-.6 5.5-1.1 4.6-1.3 10.3-4.6 16.3-9.3 6.5-5 11.8-10.5 18-18.4 2.9-3.5 8.2-10.6 8.1-10.7zm63.2-11.1c-.2 0-.7.1-1.3.1-3.7.5-5.8 1.4-7.7 3.2-1.6 1.6-2.8 3.6-2.8 4.9 0 .7.2 1 .5 1.2.4.2 1.3 0 2.1-.3 1.6-.8 3.5-2.5 5.9-5.1 1.2-1.4 3.3-3.9 3.3-4zm30.3-6.7c1.2-1 1.5-1.5 2-2.8l.1-.6h-.5c-2.2.5-6.3 3.5-10.7 7.7-3.3 3.4-5.6 6.4-5.9 8 0 .3 0 .4.2.3.1 0 .6-.3 1-.5.9-.7 2.3-1.7 4.7-4 6.5-5.7 8.2-7.2 9.1-8.1z"/></svg>